<mxfile host="Electron" modified="2024-07-09T08:24:51.297Z" agent="Mozilla/5.0 (Windows NT 10.0; Win64; x64) AppleWebKit/537.36 (KHTML, like Gecko) draw.io/24.6.1 Chrome/124.0.6367.207 Electron/30.0.6 Safari/537.36" etag="HCKXXItbtP3oXF_Usbyp" version="24.6.1" type="device">
  <diagram name="第 1 页" id="prEaLKWghYl1JGohX0N3">
    <mxGraphModel dx="1001" dy="744" grid="1" gridSize="10" guides="1" tooltips="1" connect="1" arrows="1" fold="1" page="1" pageScale="1" pageWidth="827" pageHeight="1169" math="0" shadow="0">
      <root>
        <mxCell id="0" />
        <mxCell id="1" parent="0" />
        <mxCell id="71z1FLM2gSrZRs4qxzaF-81" value="" style="rounded=1;whiteSpace=wrap;html=1;" parent="1" vertex="1">
          <mxGeometry x="99" y="920" width="630" height="230" as="geometry" />
        </mxCell>
        <mxCell id="71z1FLM2gSrZRs4qxzaF-1" value="0" style="rounded=0;whiteSpace=wrap;html=1;fillColor=#60a917;fontColor=#ffffff;strokeColor=#2D7600;fontStyle=1" parent="1" vertex="1">
          <mxGeometry x="130" y="330" width="40" height="40" as="geometry" />
        </mxCell>
        <mxCell id="71z1FLM2gSrZRs4qxzaF-2" value="1" style="rounded=0;whiteSpace=wrap;html=1;fillColor=#60a917;fontColor=#ffffff;strokeColor=#2D7600;fontStyle=1" parent="1" vertex="1">
          <mxGeometry x="190" y="330" width="40" height="40" as="geometry" />
        </mxCell>
        <mxCell id="71z1FLM2gSrZRs4qxzaF-3" value="2" style="rounded=0;whiteSpace=wrap;html=1;fillColor=#60a917;fontColor=#ffffff;strokeColor=#2D7600;fontStyle=1" parent="1" vertex="1">
          <mxGeometry x="250" y="330" width="40" height="40" as="geometry" />
        </mxCell>
        <mxCell id="71z1FLM2gSrZRs4qxzaF-20" style="edgeStyle=orthogonalEdgeStyle;rounded=0;orthogonalLoop=1;jettySize=auto;html=1;exitX=0.5;exitY=1;exitDx=0;exitDy=0;entryX=0.5;entryY=0;entryDx=0;entryDy=0;" parent="1" source="71z1FLM2gSrZRs4qxzaF-4" target="71z1FLM2gSrZRs4qxzaF-13" edge="1">
          <mxGeometry relative="1" as="geometry" />
        </mxCell>
        <mxCell id="71z1FLM2gSrZRs4qxzaF-4" value="3" style="rounded=0;whiteSpace=wrap;html=1;fillColor=#60a917;fontColor=#ffffff;strokeColor=#2D7600;fontStyle=1" parent="1" vertex="1">
          <mxGeometry x="310" y="330" width="40" height="40" as="geometry" />
        </mxCell>
        <mxCell id="71z1FLM2gSrZRs4qxzaF-21" style="edgeStyle=orthogonalEdgeStyle;rounded=0;orthogonalLoop=1;jettySize=auto;html=1;exitX=0.5;exitY=1;exitDx=0;exitDy=0;entryX=0.5;entryY=0;entryDx=0;entryDy=0;" parent="1" source="71z1FLM2gSrZRs4qxzaF-6" target="71z1FLM2gSrZRs4qxzaF-14" edge="1">
          <mxGeometry relative="1" as="geometry" />
        </mxCell>
        <mxCell id="71z1FLM2gSrZRs4qxzaF-6" value="a" style="rounded=0;whiteSpace=wrap;html=1;fillColor=#a20025;fontColor=#ffffff;strokeColor=#6F0000;fontStyle=1" parent="1" vertex="1">
          <mxGeometry x="394" y="330" width="40" height="40" as="geometry" />
        </mxCell>
        <mxCell id="71z1FLM2gSrZRs4qxzaF-22" style="edgeStyle=orthogonalEdgeStyle;rounded=0;orthogonalLoop=1;jettySize=auto;html=1;exitX=0.5;exitY=1;exitDx=0;exitDy=0;entryX=0.5;entryY=0;entryDx=0;entryDy=0;" parent="1" source="71z1FLM2gSrZRs4qxzaF-7" target="71z1FLM2gSrZRs4qxzaF-15" edge="1">
          <mxGeometry relative="1" as="geometry" />
        </mxCell>
        <mxCell id="71z1FLM2gSrZRs4qxzaF-7" value="b" style="rounded=0;whiteSpace=wrap;html=1;fillColor=#a20025;fontColor=#ffffff;strokeColor=#6F0000;fontStyle=1" parent="1" vertex="1">
          <mxGeometry x="460" y="330" width="40" height="40" as="geometry" />
        </mxCell>
        <mxCell id="71z1FLM2gSrZRs4qxzaF-11" value="" style="shape=curlyBracket;whiteSpace=wrap;html=1;rounded=1;flipH=1;labelPosition=right;verticalLabelPosition=middle;align=left;verticalAlign=middle;rotation=-90;" parent="1" vertex="1">
          <mxGeometry x="530" y="160" width="40" height="280" as="geometry" />
        </mxCell>
        <mxCell id="71z1FLM2gSrZRs4qxzaF-12" value="&lt;b&gt;&lt;font style=&quot;font-size: 15px;&quot;&gt;Random Initialize（win=5）&lt;/font&gt;&lt;/b&gt;" style="text;html=1;align=center;verticalAlign=middle;whiteSpace=wrap;rounded=0;" parent="1" vertex="1">
          <mxGeometry x="445" y="250" width="210" height="30" as="geometry" />
        </mxCell>
        <mxCell id="71z1FLM2gSrZRs4qxzaF-13" value="a" style="rounded=0;whiteSpace=wrap;html=1;fillColor=#a20025;fontColor=#ffffff;strokeColor=#6F0000;fontStyle=1" parent="1" vertex="1">
          <mxGeometry x="310" y="410" width="40" height="40" as="geometry" />
        </mxCell>
        <mxCell id="71z1FLM2gSrZRs4qxzaF-14" value="bb" style="rounded=0;whiteSpace=wrap;html=1;fillColor=#1ba1e2;fontColor=#ffffff;strokeColor=#006EAF;fontStyle=1" parent="1" vertex="1">
          <mxGeometry x="394" y="410" width="40" height="40" as="geometry" />
        </mxCell>
        <mxCell id="71z1FLM2gSrZRs4qxzaF-15" value="cc" style="rounded=0;whiteSpace=wrap;html=1;fillColor=#1ba1e2;fontColor=#ffffff;strokeColor=#006EAF;fontStyle=1" parent="1" vertex="1">
          <mxGeometry x="460" y="410" width="40" height="40" as="geometry" />
        </mxCell>
        <mxCell id="71z1FLM2gSrZRs4qxzaF-26" value="&lt;b style=&quot;font-size: 22px;&quot;&gt;&lt;font style=&quot;font-size: 22px;&quot;&gt;Step 1&lt;/font&gt;&lt;/b&gt;" style="text;html=1;align=center;verticalAlign=middle;whiteSpace=wrap;rounded=0;fontSize=22;" parent="1" vertex="1">
          <mxGeometry y="330" width="90" height="40" as="geometry" />
        </mxCell>
        <mxCell id="71z1FLM2gSrZRs4qxzaF-30" value="" style="group" parent="1" vertex="1" connectable="0">
          <mxGeometry x="530" y="330" width="180" height="120" as="geometry" />
        </mxCell>
        <mxCell id="71z1FLM2gSrZRs4qxzaF-23" style="edgeStyle=orthogonalEdgeStyle;rounded=0;orthogonalLoop=1;jettySize=auto;html=1;exitX=0.5;exitY=1;exitDx=0;exitDy=0;entryX=0.5;entryY=0;entryDx=0;entryDy=0;" parent="71z1FLM2gSrZRs4qxzaF-30" source="71z1FLM2gSrZRs4qxzaF-8" target="71z1FLM2gSrZRs4qxzaF-16" edge="1">
          <mxGeometry relative="1" as="geometry" />
        </mxCell>
        <mxCell id="71z1FLM2gSrZRs4qxzaF-8" value="c" style="rounded=0;whiteSpace=wrap;html=1;fillColor=#a20025;fontColor=#ffffff;strokeColor=#6F0000;fontStyle=1" parent="71z1FLM2gSrZRs4qxzaF-30" vertex="1">
          <mxGeometry width="40" height="40" as="geometry" />
        </mxCell>
        <mxCell id="71z1FLM2gSrZRs4qxzaF-24" style="edgeStyle=orthogonalEdgeStyle;rounded=0;orthogonalLoop=1;jettySize=auto;html=1;exitX=0.5;exitY=1;exitDx=0;exitDy=0;entryX=0.5;entryY=0;entryDx=0;entryDy=0;" parent="71z1FLM2gSrZRs4qxzaF-30" source="71z1FLM2gSrZRs4qxzaF-9" target="71z1FLM2gSrZRs4qxzaF-17" edge="1">
          <mxGeometry relative="1" as="geometry" />
        </mxCell>
        <mxCell id="71z1FLM2gSrZRs4qxzaF-9" value="d" style="rounded=0;whiteSpace=wrap;html=1;fillColor=#a20025;fontColor=#ffffff;strokeColor=#6F0000;fontStyle=1" parent="71z1FLM2gSrZRs4qxzaF-30" vertex="1">
          <mxGeometry x="70" width="40" height="40" as="geometry" />
        </mxCell>
        <mxCell id="71z1FLM2gSrZRs4qxzaF-25" style="edgeStyle=orthogonalEdgeStyle;rounded=0;orthogonalLoop=1;jettySize=auto;html=1;exitX=0.5;exitY=1;exitDx=0;exitDy=0;entryX=0.5;entryY=0;entryDx=0;entryDy=0;" parent="71z1FLM2gSrZRs4qxzaF-30" source="71z1FLM2gSrZRs4qxzaF-10" target="71z1FLM2gSrZRs4qxzaF-18" edge="1">
          <mxGeometry relative="1" as="geometry" />
        </mxCell>
        <mxCell id="71z1FLM2gSrZRs4qxzaF-10" value="d" style="rounded=0;whiteSpace=wrap;html=1;fillColor=#a20025;fontColor=#ffffff;strokeColor=#6F0000;fontStyle=1" parent="71z1FLM2gSrZRs4qxzaF-30" vertex="1">
          <mxGeometry x="140" width="40" height="40" as="geometry" />
        </mxCell>
        <mxCell id="71z1FLM2gSrZRs4qxzaF-16" value="dd" style="rounded=0;whiteSpace=wrap;html=1;fillColor=#1ba1e2;fontColor=#ffffff;strokeColor=#006EAF;fontStyle=1" parent="71z1FLM2gSrZRs4qxzaF-30" vertex="1">
          <mxGeometry y="80" width="40" height="40" as="geometry" />
        </mxCell>
        <mxCell id="71z1FLM2gSrZRs4qxzaF-17" value="ee" style="rounded=0;whiteSpace=wrap;html=1;fillColor=#1ba1e2;fontColor=#ffffff;strokeColor=#006EAF;fontStyle=1" parent="71z1FLM2gSrZRs4qxzaF-30" vertex="1">
          <mxGeometry x="70" y="80" width="40" height="40" as="geometry" />
        </mxCell>
        <mxCell id="71z1FLM2gSrZRs4qxzaF-18" value="ff" style="rounded=0;whiteSpace=wrap;html=1;fillColor=#1ba1e2;fontColor=#ffffff;strokeColor=#006EAF;fontStyle=1" parent="71z1FLM2gSrZRs4qxzaF-30" vertex="1">
          <mxGeometry x="140" y="80" width="40" height="40" as="geometry" />
        </mxCell>
        <mxCell id="71z1FLM2gSrZRs4qxzaF-41" value="0" style="rounded=0;whiteSpace=wrap;html=1;fillColor=#60a917;fontColor=#ffffff;strokeColor=#2D7600;fontStyle=1" parent="1" vertex="1">
          <mxGeometry x="130" y="770" width="40" height="40" as="geometry" />
        </mxCell>
        <mxCell id="71z1FLM2gSrZRs4qxzaF-42" value="1" style="rounded=0;whiteSpace=wrap;html=1;fillColor=#60a917;fontColor=#ffffff;strokeColor=#2D7600;fontStyle=1" parent="1" vertex="1">
          <mxGeometry x="190" y="770" width="40" height="40" as="geometry" />
        </mxCell>
        <mxCell id="71z1FLM2gSrZRs4qxzaF-43" value="2" style="rounded=0;whiteSpace=wrap;html=1;fillColor=#60a917;fontColor=#ffffff;strokeColor=#2D7600;fontStyle=1" parent="1" vertex="1">
          <mxGeometry x="250" y="770" width="40" height="40" as="geometry" />
        </mxCell>
        <mxCell id="71z1FLM2gSrZRs4qxzaF-45" value="3" style="rounded=0;whiteSpace=wrap;html=1;fillColor=#60a917;fontColor=#ffffff;strokeColor=#2D7600;fontStyle=1" parent="1" vertex="1">
          <mxGeometry x="310" y="770" width="40" height="40" as="geometry" />
        </mxCell>
        <mxCell id="71z1FLM2gSrZRs4qxzaF-47" value="a" style="rounded=0;whiteSpace=wrap;html=1;fillColor=#60a917;fontColor=#ffffff;strokeColor=#2D7600;fontStyle=1" parent="1" vertex="1">
          <mxGeometry x="394" y="770" width="40" height="40" as="geometry" />
        </mxCell>
        <mxCell id="71z1FLM2gSrZRs4qxzaF-151" style="edgeStyle=orthogonalEdgeStyle;rounded=0;orthogonalLoop=1;jettySize=auto;html=1;exitX=0.5;exitY=1;exitDx=0;exitDy=0;entryX=0.5;entryY=0;entryDx=0;entryDy=0;" parent="1" source="71z1FLM2gSrZRs4qxzaF-49" target="71z1FLM2gSrZRs4qxzaF-150" edge="1">
          <mxGeometry relative="1" as="geometry" />
        </mxCell>
        <mxCell id="71z1FLM2gSrZRs4qxzaF-49" value="bb" style="rounded=0;whiteSpace=wrap;html=1;fillColor=#60a917;fontColor=#ffffff;strokeColor=#2D7600;fontStyle=1" parent="1" vertex="1">
          <mxGeometry x="460" y="770" width="40" height="40" as="geometry" />
        </mxCell>
        <mxCell id="71z1FLM2gSrZRs4qxzaF-50" value="" style="shape=curlyBracket;whiteSpace=wrap;html=1;rounded=1;flipH=1;labelPosition=right;verticalLabelPosition=middle;align=left;verticalAlign=middle;rotation=-90;" parent="1" vertex="1">
          <mxGeometry x="532.5" y="597.5" width="40" height="285" as="geometry" />
        </mxCell>
        <mxCell id="71z1FLM2gSrZRs4qxzaF-51" value="&lt;b&gt;&lt;font style=&quot;font-size: 15px;&quot;&gt;From Step 1（win=5）&lt;/font&gt;&lt;/b&gt;" style="text;html=1;align=center;verticalAlign=middle;whiteSpace=wrap;rounded=0;" parent="1" vertex="1">
          <mxGeometry x="480" y="690" width="210" height="30" as="geometry" />
        </mxCell>
        <mxCell id="71z1FLM2gSrZRs4qxzaF-55" value="&lt;b style=&quot;font-size: 22px;&quot;&gt;&lt;font style=&quot;font-size: 22px;&quot;&gt;Step 2&lt;/font&gt;&lt;/b&gt;" style="text;html=1;align=center;verticalAlign=middle;whiteSpace=wrap;rounded=0;fontSize=22;" parent="1" vertex="1">
          <mxGeometry y="770" width="90" height="40" as="geometry" />
        </mxCell>
        <mxCell id="71z1FLM2gSrZRs4qxzaF-71" value="" style="edgeStyle=orthogonalEdgeStyle;rounded=0;orthogonalLoop=1;jettySize=auto;html=1;" parent="1" source="71z1FLM2gSrZRs4qxzaF-66" target="71z1FLM2gSrZRs4qxzaF-70" edge="1">
          <mxGeometry relative="1" as="geometry" />
        </mxCell>
        <mxCell id="71z1FLM2gSrZRs4qxzaF-66" value="cc" style="rounded=0;whiteSpace=wrap;html=1;fillColor=#1ba1e2;fontColor=#ffffff;strokeColor=#006EAF;fontStyle=1" parent="1" vertex="1">
          <mxGeometry x="530" y="770" width="40" height="40" as="geometry" />
        </mxCell>
        <mxCell id="71z1FLM2gSrZRs4qxzaF-67" value="dd" style="rounded=0;whiteSpace=wrap;html=1;fillColor=#1ba1e2;fontColor=#ffffff;strokeColor=#006EAF;fontStyle=1" parent="1" vertex="1">
          <mxGeometry x="600" y="770" width="40" height="40" as="geometry" />
        </mxCell>
        <mxCell id="71z1FLM2gSrZRs4qxzaF-68" value="ee" style="rounded=0;whiteSpace=wrap;html=1;fillColor=#1ba1e2;fontColor=#ffffff;strokeColor=#006EAF;fontStyle=1" parent="1" vertex="1">
          <mxGeometry x="670" y="770" width="40" height="40" as="geometry" />
        </mxCell>
        <mxCell id="71z1FLM2gSrZRs4qxzaF-70" value="d" style="rounded=0;whiteSpace=wrap;html=1;fillColor=#fa6800;fontColor=#000000;strokeColor=#C73500;fontStyle=1" parent="1" vertex="1">
          <mxGeometry x="530" y="850" width="40" height="40" as="geometry" />
        </mxCell>
        <mxCell id="71z1FLM2gSrZRs4qxzaF-72" value="" style="edgeStyle=orthogonalEdgeStyle;rounded=0;orthogonalLoop=1;jettySize=auto;html=1;" parent="1" target="71z1FLM2gSrZRs4qxzaF-73" edge="1">
          <mxGeometry relative="1" as="geometry">
            <mxPoint x="620" y="810" as="sourcePoint" />
          </mxGeometry>
        </mxCell>
        <mxCell id="71z1FLM2gSrZRs4qxzaF-73" value="ddd" style="rounded=0;whiteSpace=wrap;html=1;fillColor=#fa6800;fontColor=#000000;strokeColor=#C73500;fontStyle=1" parent="1" vertex="1">
          <mxGeometry x="600" y="850" width="40" height="40" as="geometry" />
        </mxCell>
        <mxCell id="71z1FLM2gSrZRs4qxzaF-74" value="" style="edgeStyle=orthogonalEdgeStyle;rounded=0;orthogonalLoop=1;jettySize=auto;html=1;" parent="1" target="71z1FLM2gSrZRs4qxzaF-75" edge="1">
          <mxGeometry relative="1" as="geometry">
            <mxPoint x="690" y="810" as="sourcePoint" />
          </mxGeometry>
        </mxCell>
        <mxCell id="71z1FLM2gSrZRs4qxzaF-75" value="eee" style="rounded=0;whiteSpace=wrap;html=1;fillColor=#fa6800;fontColor=#000000;strokeColor=#C73500;fontStyle=1" parent="1" vertex="1">
          <mxGeometry x="670" y="850" width="40" height="40" as="geometry" />
        </mxCell>
        <mxCell id="71z1FLM2gSrZRs4qxzaF-78" value="&lt;b&gt;&lt;font style=&quot;font-size: 18px;&quot;&gt;N_Gram=3&lt;/font&gt;&lt;/b&gt;" style="text;html=1;align=center;verticalAlign=middle;whiteSpace=wrap;rounded=0;" parent="1" vertex="1">
          <mxGeometry x="20" y="250" width="60" height="30" as="geometry" />
        </mxCell>
        <mxCell id="71z1FLM2gSrZRs4qxzaF-79" value="" style="group" parent="1" vertex="1" connectable="0">
          <mxGeometry x="110" y="510" width="630" height="160" as="geometry" />
        </mxCell>
        <mxCell id="71z1FLM2gSrZRs4qxzaF-27" value="" style="rounded=1;whiteSpace=wrap;html=1;" parent="71z1FLM2gSrZRs4qxzaF-79" vertex="1">
          <mxGeometry width="630" height="160" as="geometry" />
        </mxCell>
        <mxCell id="71z1FLM2gSrZRs4qxzaF-31" value="" style="group" parent="71z1FLM2gSrZRs4qxzaF-79" vertex="1" connectable="0">
          <mxGeometry x="110" y="20" width="180" height="120" as="geometry" />
        </mxCell>
        <mxCell id="71z1FLM2gSrZRs4qxzaF-32" style="edgeStyle=orthogonalEdgeStyle;rounded=0;orthogonalLoop=1;jettySize=auto;html=1;exitX=0.5;exitY=1;exitDx=0;exitDy=0;entryX=0.5;entryY=0;entryDx=0;entryDy=0;" parent="71z1FLM2gSrZRs4qxzaF-31" source="71z1FLM2gSrZRs4qxzaF-33" target="71z1FLM2gSrZRs4qxzaF-38" edge="1">
          <mxGeometry relative="1" as="geometry" />
        </mxCell>
        <mxCell id="71z1FLM2gSrZRs4qxzaF-33" value="c" style="rounded=0;whiteSpace=wrap;html=1;fillColor=#a20025;fontColor=#ffffff;strokeColor=#6F0000;fontStyle=1" parent="71z1FLM2gSrZRs4qxzaF-31" vertex="1">
          <mxGeometry width="40" height="40" as="geometry" />
        </mxCell>
        <mxCell id="71z1FLM2gSrZRs4qxzaF-34" style="edgeStyle=orthogonalEdgeStyle;rounded=0;orthogonalLoop=1;jettySize=auto;html=1;exitX=0.5;exitY=1;exitDx=0;exitDy=0;entryX=0.5;entryY=0;entryDx=0;entryDy=0;" parent="71z1FLM2gSrZRs4qxzaF-31" source="71z1FLM2gSrZRs4qxzaF-35" target="71z1FLM2gSrZRs4qxzaF-39" edge="1">
          <mxGeometry relative="1" as="geometry" />
        </mxCell>
        <mxCell id="71z1FLM2gSrZRs4qxzaF-35" value="d" style="rounded=0;whiteSpace=wrap;html=1;fillColor=#a20025;fontColor=#ffffff;strokeColor=#6F0000;fontStyle=1" parent="71z1FLM2gSrZRs4qxzaF-31" vertex="1">
          <mxGeometry x="70" width="40" height="40" as="geometry" />
        </mxCell>
        <mxCell id="71z1FLM2gSrZRs4qxzaF-36" style="edgeStyle=orthogonalEdgeStyle;rounded=0;orthogonalLoop=1;jettySize=auto;html=1;exitX=0.5;exitY=1;exitDx=0;exitDy=0;entryX=0.5;entryY=0;entryDx=0;entryDy=0;" parent="71z1FLM2gSrZRs4qxzaF-31" source="71z1FLM2gSrZRs4qxzaF-37" target="71z1FLM2gSrZRs4qxzaF-40" edge="1">
          <mxGeometry relative="1" as="geometry" />
        </mxCell>
        <mxCell id="71z1FLM2gSrZRs4qxzaF-37" value="d" style="rounded=0;whiteSpace=wrap;html=1;fillColor=#a20025;fontColor=#ffffff;strokeColor=#6F0000;fontStyle=1" parent="71z1FLM2gSrZRs4qxzaF-31" vertex="1">
          <mxGeometry x="140" width="40" height="40" as="geometry" />
        </mxCell>
        <mxCell id="71z1FLM2gSrZRs4qxzaF-38" value="dd" style="rounded=0;whiteSpace=wrap;html=1;fillColor=#1ba1e2;fontColor=#ffffff;strokeColor=#006EAF;fontStyle=1" parent="71z1FLM2gSrZRs4qxzaF-31" vertex="1">
          <mxGeometry y="80" width="40" height="40" as="geometry" />
        </mxCell>
        <mxCell id="71z1FLM2gSrZRs4qxzaF-39" value="ee" style="rounded=0;whiteSpace=wrap;html=1;fillColor=#1ba1e2;fontColor=#ffffff;strokeColor=#006EAF;fontStyle=1" parent="71z1FLM2gSrZRs4qxzaF-31" vertex="1">
          <mxGeometry x="70" y="80" width="40" height="40" as="geometry" />
        </mxCell>
        <mxCell id="71z1FLM2gSrZRs4qxzaF-40" value="ff" style="rounded=0;whiteSpace=wrap;html=1;fillColor=#1ba1e2;fontColor=#ffffff;strokeColor=#006EAF;fontStyle=1" parent="71z1FLM2gSrZRs4qxzaF-31" vertex="1">
          <mxGeometry x="140" y="80" width="40" height="40" as="geometry" />
        </mxCell>
        <mxCell id="71z1FLM2gSrZRs4qxzaF-146" style="edgeStyle=orthogonalEdgeStyle;rounded=0;orthogonalLoop=1;jettySize=auto;html=1;exitX=0.5;exitY=1;exitDx=0;exitDy=0;entryX=0.5;entryY=0;entryDx=0;entryDy=0;" parent="71z1FLM2gSrZRs4qxzaF-79" source="71z1FLM2gSrZRs4qxzaF-147" target="71z1FLM2gSrZRs4qxzaF-148" edge="1">
          <mxGeometry relative="1" as="geometry" />
        </mxCell>
        <mxCell id="71z1FLM2gSrZRs4qxzaF-147" value="b" style="rounded=0;whiteSpace=wrap;html=1;fillColor=#a20025;fontColor=#ffffff;strokeColor=#6F0000;fontStyle=1" parent="71z1FLM2gSrZRs4qxzaF-79" vertex="1">
          <mxGeometry x="40" y="20" width="40" height="40" as="geometry" />
        </mxCell>
        <mxCell id="71z1FLM2gSrZRs4qxzaF-148" value="cc" style="rounded=0;whiteSpace=wrap;html=1;fillColor=#1ba1e2;fontColor=#ffffff;strokeColor=#006EAF;fontStyle=1" parent="71z1FLM2gSrZRs4qxzaF-79" vertex="1">
          <mxGeometry x="40" y="100" width="40" height="40" as="geometry" />
        </mxCell>
        <mxCell id="71z1FLM2gSrZRs4qxzaF-82" value="" style="group" parent="1" vertex="1" connectable="0">
          <mxGeometry x="250" y="940" width="180" height="120" as="geometry" />
        </mxCell>
        <mxCell id="71z1FLM2gSrZRs4qxzaF-83" style="edgeStyle=orthogonalEdgeStyle;rounded=0;orthogonalLoop=1;jettySize=auto;html=1;exitX=0.5;exitY=1;exitDx=0;exitDy=0;entryX=0.5;entryY=0;entryDx=0;entryDy=0;" parent="71z1FLM2gSrZRs4qxzaF-82" source="71z1FLM2gSrZRs4qxzaF-84" target="71z1FLM2gSrZRs4qxzaF-89" edge="1">
          <mxGeometry relative="1" as="geometry" />
        </mxCell>
        <mxCell id="71z1FLM2gSrZRs4qxzaF-84" value="c" style="rounded=0;whiteSpace=wrap;html=1;fillColor=#a20025;fontColor=#ffffff;strokeColor=#6F0000;fontStyle=1" parent="71z1FLM2gSrZRs4qxzaF-82" vertex="1">
          <mxGeometry width="40" height="40" as="geometry" />
        </mxCell>
        <mxCell id="71z1FLM2gSrZRs4qxzaF-85" style="edgeStyle=orthogonalEdgeStyle;rounded=0;orthogonalLoop=1;jettySize=auto;html=1;exitX=0.5;exitY=1;exitDx=0;exitDy=0;entryX=0.5;entryY=0;entryDx=0;entryDy=0;" parent="71z1FLM2gSrZRs4qxzaF-82" source="71z1FLM2gSrZRs4qxzaF-86" target="71z1FLM2gSrZRs4qxzaF-90" edge="1">
          <mxGeometry relative="1" as="geometry" />
        </mxCell>
        <mxCell id="71z1FLM2gSrZRs4qxzaF-86" value="d" style="rounded=0;whiteSpace=wrap;html=1;fillColor=#a20025;fontColor=#ffffff;strokeColor=#6F0000;fontStyle=1" parent="71z1FLM2gSrZRs4qxzaF-82" vertex="1">
          <mxGeometry x="70" width="40" height="40" as="geometry" />
        </mxCell>
        <mxCell id="71z1FLM2gSrZRs4qxzaF-87" style="edgeStyle=orthogonalEdgeStyle;rounded=0;orthogonalLoop=1;jettySize=auto;html=1;exitX=0.5;exitY=1;exitDx=0;exitDy=0;entryX=0.5;entryY=0;entryDx=0;entryDy=0;" parent="71z1FLM2gSrZRs4qxzaF-82" source="71z1FLM2gSrZRs4qxzaF-88" target="71z1FLM2gSrZRs4qxzaF-91" edge="1">
          <mxGeometry relative="1" as="geometry" />
        </mxCell>
        <mxCell id="71z1FLM2gSrZRs4qxzaF-88" value="d" style="rounded=0;whiteSpace=wrap;html=1;fillColor=#a20025;fontColor=#ffffff;strokeColor=#6F0000;fontStyle=1" parent="71z1FLM2gSrZRs4qxzaF-82" vertex="1">
          <mxGeometry x="140" width="40" height="40" as="geometry" />
        </mxCell>
        <mxCell id="71z1FLM2gSrZRs4qxzaF-89" value="dd" style="rounded=0;whiteSpace=wrap;html=1;fillColor=#1ba1e2;fontColor=#ffffff;strokeColor=#006EAF;fontStyle=1" parent="71z1FLM2gSrZRs4qxzaF-82" vertex="1">
          <mxGeometry y="80" width="40" height="40" as="geometry" />
        </mxCell>
        <mxCell id="71z1FLM2gSrZRs4qxzaF-90" value="ee" style="rounded=0;whiteSpace=wrap;html=1;fillColor=#1ba1e2;fontColor=#ffffff;strokeColor=#006EAF;fontStyle=1" parent="71z1FLM2gSrZRs4qxzaF-82" vertex="1">
          <mxGeometry x="70" y="80" width="40" height="40" as="geometry" />
        </mxCell>
        <mxCell id="71z1FLM2gSrZRs4qxzaF-91" value="ff" style="rounded=0;whiteSpace=wrap;html=1;fillColor=#1ba1e2;fontColor=#ffffff;strokeColor=#006EAF;fontStyle=1" parent="71z1FLM2gSrZRs4qxzaF-82" vertex="1">
          <mxGeometry x="140" y="80" width="40" height="40" as="geometry" />
        </mxCell>
        <mxCell id="71z1FLM2gSrZRs4qxzaF-92" value="ddd" style="rounded=0;whiteSpace=wrap;html=1;fillColor=#fa6800;fontColor=#000000;strokeColor=#C73500;fontStyle=1" parent="1" vertex="1">
          <mxGeometry x="250" y="1100" width="40" height="40" as="geometry" />
        </mxCell>
        <mxCell id="71z1FLM2gSrZRs4qxzaF-93" value="eee" style="rounded=0;whiteSpace=wrap;html=1;fillColor=#fa6800;fontColor=#000000;strokeColor=#C73500;fontStyle=1" parent="1" vertex="1">
          <mxGeometry x="320" y="1100" width="40" height="40" as="geometry" />
        </mxCell>
        <mxCell id="71z1FLM2gSrZRs4qxzaF-94" value="fff" style="rounded=0;whiteSpace=wrap;html=1;fillColor=#fa6800;fontColor=#000000;strokeColor=#C73500;fontStyle=1" parent="1" vertex="1">
          <mxGeometry x="390" y="1100" width="40" height="40" as="geometry" />
        </mxCell>
        <mxCell id="71z1FLM2gSrZRs4qxzaF-95" style="edgeStyle=orthogonalEdgeStyle;rounded=0;orthogonalLoop=1;jettySize=auto;html=1;exitX=0.5;exitY=1;exitDx=0;exitDy=0;entryX=0.5;entryY=0;entryDx=0;entryDy=0;" parent="1" source="71z1FLM2gSrZRs4qxzaF-89" target="71z1FLM2gSrZRs4qxzaF-92" edge="1">
          <mxGeometry relative="1" as="geometry" />
        </mxCell>
        <mxCell id="71z1FLM2gSrZRs4qxzaF-96" style="edgeStyle=orthogonalEdgeStyle;rounded=0;orthogonalLoop=1;jettySize=auto;html=1;exitX=0.5;exitY=1;exitDx=0;exitDy=0;entryX=0.5;entryY=0;entryDx=0;entryDy=0;" parent="1" source="71z1FLM2gSrZRs4qxzaF-90" target="71z1FLM2gSrZRs4qxzaF-93" edge="1">
          <mxGeometry relative="1" as="geometry" />
        </mxCell>
        <mxCell id="71z1FLM2gSrZRs4qxzaF-97" style="edgeStyle=orthogonalEdgeStyle;rounded=0;orthogonalLoop=1;jettySize=auto;html=1;exitX=0.5;exitY=1;exitDx=0;exitDy=0;entryX=0.5;entryY=0;entryDx=0;entryDy=0;" parent="1" source="71z1FLM2gSrZRs4qxzaF-91" target="71z1FLM2gSrZRs4qxzaF-94" edge="1">
          <mxGeometry relative="1" as="geometry" />
        </mxCell>
        <mxCell id="71z1FLM2gSrZRs4qxzaF-120" value="&lt;b style=&quot;font-size: 22px;&quot;&gt;&lt;font style=&quot;font-size: 22px;&quot;&gt;Step 3&lt;/font&gt;&lt;/b&gt;" style="text;html=1;align=center;verticalAlign=middle;whiteSpace=wrap;rounded=0;fontSize=22;" parent="1" vertex="1">
          <mxGeometry y="1275" width="90" height="40" as="geometry" />
        </mxCell>
        <mxCell id="71z1FLM2gSrZRs4qxzaF-123" value="" style="shape=flexArrow;endArrow=classic;html=1;rounded=0;" parent="1" edge="1">
          <mxGeometry width="50" height="50" relative="1" as="geometry">
            <mxPoint x="550" y="1270" as="sourcePoint" />
            <mxPoint x="450" y="1080" as="targetPoint" />
          </mxGeometry>
        </mxCell>
        <mxCell id="71z1FLM2gSrZRs4qxzaF-125" value="" style="group" parent="1" vertex="1" connectable="0">
          <mxGeometry x="130" y="1195" width="650" height="187.5" as="geometry" />
        </mxCell>
        <mxCell id="71z1FLM2gSrZRs4qxzaF-98" value="0" style="rounded=0;whiteSpace=wrap;html=1;fillColor=#60a917;fontColor=#ffffff;strokeColor=#2D7600;fontStyle=1" parent="71z1FLM2gSrZRs4qxzaF-125" vertex="1">
          <mxGeometry y="80" width="40" height="40" as="geometry" />
        </mxCell>
        <mxCell id="71z1FLM2gSrZRs4qxzaF-99" value="1" style="rounded=0;whiteSpace=wrap;html=1;fillColor=#60a917;fontColor=#ffffff;strokeColor=#2D7600;fontStyle=1" parent="71z1FLM2gSrZRs4qxzaF-125" vertex="1">
          <mxGeometry x="60" y="80" width="40" height="40" as="geometry" />
        </mxCell>
        <mxCell id="71z1FLM2gSrZRs4qxzaF-100" value="2" style="rounded=0;whiteSpace=wrap;html=1;fillColor=#60a917;fontColor=#ffffff;strokeColor=#2D7600;fontStyle=1" parent="71z1FLM2gSrZRs4qxzaF-125" vertex="1">
          <mxGeometry x="120" y="80" width="40" height="40" as="geometry" />
        </mxCell>
        <mxCell id="71z1FLM2gSrZRs4qxzaF-101" value="3" style="rounded=0;whiteSpace=wrap;html=1;fillColor=#60a917;fontColor=#ffffff;strokeColor=#2D7600;fontStyle=1" parent="71z1FLM2gSrZRs4qxzaF-125" vertex="1">
          <mxGeometry x="180" y="80" width="40" height="40" as="geometry" />
        </mxCell>
        <mxCell id="71z1FLM2gSrZRs4qxzaF-102" value="a" style="rounded=0;whiteSpace=wrap;html=1;fillColor=#60a917;fontColor=#ffffff;strokeColor=#2D7600;fontStyle=1" parent="71z1FLM2gSrZRs4qxzaF-125" vertex="1">
          <mxGeometry x="264" y="80" width="40" height="40" as="geometry" />
        </mxCell>
        <mxCell id="71z1FLM2gSrZRs4qxzaF-103" value="bb" style="rounded=0;whiteSpace=wrap;html=1;fillColor=#60a917;fontColor=#ffffff;strokeColor=#2D7600;fontStyle=1" parent="71z1FLM2gSrZRs4qxzaF-125" vertex="1">
          <mxGeometry x="330" y="80" width="40" height="40" as="geometry" />
        </mxCell>
        <mxCell id="71z1FLM2gSrZRs4qxzaF-104" value="" style="shape=curlyBracket;whiteSpace=wrap;html=1;rounded=1;flipH=1;labelPosition=right;verticalLabelPosition=middle;align=left;verticalAlign=middle;rotation=-90;" parent="71z1FLM2gSrZRs4qxzaF-125" vertex="1">
          <mxGeometry x="397.5" y="-87.5" width="40" height="275" as="geometry" />
        </mxCell>
        <mxCell id="71z1FLM2gSrZRs4qxzaF-105" value="&lt;b&gt;&lt;font style=&quot;font-size: 15px;&quot;&gt;From Step 2（win=5）&lt;/font&gt;&lt;/b&gt;" style="text;html=1;align=center;verticalAlign=middle;whiteSpace=wrap;rounded=0;" parent="71z1FLM2gSrZRs4qxzaF-125" vertex="1">
          <mxGeometry x="350" width="210" height="30" as="geometry" />
        </mxCell>
        <mxCell id="71z1FLM2gSrZRs4qxzaF-107" value="d" style="rounded=0;whiteSpace=wrap;html=1;fillColor=#60a917;fontColor=#ffffff;strokeColor=#2D7600;fontStyle=1" parent="71z1FLM2gSrZRs4qxzaF-125" vertex="1">
          <mxGeometry x="400" y="80" width="40" height="40" as="geometry" />
        </mxCell>
        <mxCell id="71z1FLM2gSrZRs4qxzaF-108" value="d" style="rounded=0;whiteSpace=wrap;html=1;fillColor=#fa6800;fontColor=#000000;strokeColor=#C73500;fontStyle=1" parent="71z1FLM2gSrZRs4qxzaF-125" vertex="1">
          <mxGeometry x="470" y="80" width="40" height="40" as="geometry" />
        </mxCell>
        <mxCell id="71z1FLM2gSrZRs4qxzaF-109" value="ee" style="rounded=0;whiteSpace=wrap;html=1;fillColor=#fa6800;fontColor=#000000;strokeColor=#C73500;fontStyle=1" parent="71z1FLM2gSrZRs4qxzaF-125" vertex="1">
          <mxGeometry x="540" y="80" width="40" height="40" as="geometry" />
        </mxCell>
        <mxCell id="71z1FLM2gSrZRs4qxzaF-127" value="0" style="rounded=0;whiteSpace=wrap;html=1;fillColor=#60a917;fontColor=#ffffff;strokeColor=#2D7600;fontStyle=1" parent="1" vertex="1">
          <mxGeometry x="130" y="1430" width="40" height="40" as="geometry" />
        </mxCell>
        <mxCell id="71z1FLM2gSrZRs4qxzaF-128" value="1" style="rounded=0;whiteSpace=wrap;html=1;fillColor=#60a917;fontColor=#ffffff;strokeColor=#2D7600;fontStyle=1" parent="1" vertex="1">
          <mxGeometry x="190" y="1430" width="40" height="40" as="geometry" />
        </mxCell>
        <mxCell id="71z1FLM2gSrZRs4qxzaF-129" value="2" style="rounded=0;whiteSpace=wrap;html=1;fillColor=#60a917;fontColor=#ffffff;strokeColor=#2D7600;fontStyle=1" parent="1" vertex="1">
          <mxGeometry x="250" y="1430" width="40" height="40" as="geometry" />
        </mxCell>
        <mxCell id="71z1FLM2gSrZRs4qxzaF-130" value="3" style="rounded=0;whiteSpace=wrap;html=1;fillColor=#60a917;fontColor=#ffffff;strokeColor=#2D7600;fontStyle=1" parent="1" vertex="1">
          <mxGeometry x="310" y="1430" width="40" height="40" as="geometry" />
        </mxCell>
        <mxCell id="71z1FLM2gSrZRs4qxzaF-131" value="a" style="rounded=0;whiteSpace=wrap;html=1;fillColor=#60a917;fontColor=#ffffff;strokeColor=#2D7600;fontStyle=1" parent="1" vertex="1">
          <mxGeometry x="394" y="1430" width="40" height="40" as="geometry" />
        </mxCell>
        <mxCell id="71z1FLM2gSrZRs4qxzaF-132" value="bb" style="rounded=0;whiteSpace=wrap;html=1;fillColor=#60a917;fontColor=#ffffff;strokeColor=#2D7600;fontStyle=1" parent="1" vertex="1">
          <mxGeometry x="460" y="1430" width="40" height="40" as="geometry" />
        </mxCell>
        <mxCell id="71z1FLM2gSrZRs4qxzaF-133" value="" style="shape=curlyBracket;whiteSpace=wrap;html=1;rounded=1;flipH=1;labelPosition=right;verticalLabelPosition=middle;align=left;verticalAlign=middle;rotation=-90;" parent="1" vertex="1">
          <mxGeometry x="527.5" y="1262.5" width="40" height="275" as="geometry" />
        </mxCell>
        <mxCell id="71z1FLM2gSrZRs4qxzaF-134" value="&lt;b&gt;&lt;font style=&quot;font-size: 15px;&quot;&gt;From Step 2（win=5）&lt;/font&gt;&lt;/b&gt;" style="text;html=1;align=center;verticalAlign=middle;whiteSpace=wrap;rounded=0;" parent="1" vertex="1">
          <mxGeometry x="480" y="1350" width="210" height="30" as="geometry" />
        </mxCell>
        <mxCell id="71z1FLM2gSrZRs4qxzaF-158" style="edgeStyle=orthogonalEdgeStyle;rounded=0;orthogonalLoop=1;jettySize=auto;html=1;exitX=1;exitY=0.5;exitDx=0;exitDy=0;entryX=0;entryY=0.5;entryDx=0;entryDy=0;" parent="1" source="71z1FLM2gSrZRs4qxzaF-135" target="71z1FLM2gSrZRs4qxzaF-136" edge="1">
          <mxGeometry relative="1" as="geometry" />
        </mxCell>
        <mxCell id="71z1FLM2gSrZRs4qxzaF-159" style="edgeStyle=orthogonalEdgeStyle;rounded=0;orthogonalLoop=1;jettySize=auto;html=1;exitX=1;exitY=0.5;exitDx=0;exitDy=0;entryX=0;entryY=0.5;entryDx=0;entryDy=0;" parent="1" source="71z1FLM2gSrZRs4qxzaF-135" target="71z1FLM2gSrZRs4qxzaF-157" edge="1">
          <mxGeometry relative="1" as="geometry">
            <Array as="points">
              <mxPoint x="580" y="1450" />
              <mxPoint x="580" y="1600" />
            </Array>
          </mxGeometry>
        </mxCell>
        <mxCell id="71z1FLM2gSrZRs4qxzaF-135" value="d" style="rounded=0;whiteSpace=wrap;html=1;fillColor=#60a917;fontColor=#ffffff;strokeColor=#2D7600;fontStyle=1" parent="1" vertex="1">
          <mxGeometry x="530" y="1430" width="40" height="40" as="geometry" />
        </mxCell>
        <mxCell id="71z1FLM2gSrZRs4qxzaF-136" value="ee" style="rounded=0;whiteSpace=wrap;html=1;fillColor=#1ba1e2;fontColor=#ffffff;strokeColor=#006EAF;fontStyle=1" parent="1" vertex="1">
          <mxGeometry x="600" y="1430" width="40" height="40" as="geometry" />
        </mxCell>
        <mxCell id="71z1FLM2gSrZRs4qxzaF-137" value="eee" style="rounded=0;whiteSpace=wrap;html=1;fillColor=#fa6800;fontColor=#000000;strokeColor=#C73500;fontStyle=1" parent="1" vertex="1">
          <mxGeometry x="670" y="1430" width="40" height="40" as="geometry" />
        </mxCell>
        <mxCell id="71z1FLM2gSrZRs4qxzaF-144" value="fff" style="rounded=0;whiteSpace=wrap;html=1;fillColor=#fa6800;fontColor=#000000;strokeColor=#C73500;fontStyle=1" parent="1" vertex="1">
          <mxGeometry x="670" y="1580" width="40" height="40" as="geometry" />
        </mxCell>
        <mxCell id="71z1FLM2gSrZRs4qxzaF-150" value="d" style="rounded=0;whiteSpace=wrap;html=1;fillColor=#fa6800;fontColor=#000000;strokeColor=#C73500;fontStyle=1" parent="1" vertex="1">
          <mxGeometry x="460" y="850" width="40" height="40" as="geometry" />
        </mxCell>
        <mxCell id="71z1FLM2gSrZRs4qxzaF-152" style="edgeStyle=orthogonalEdgeStyle;rounded=0;orthogonalLoop=1;jettySize=auto;html=1;exitX=0.5;exitY=1;exitDx=0;exitDy=0;entryX=0.5;entryY=0;entryDx=0;entryDy=0;" parent="1" source="71z1FLM2gSrZRs4qxzaF-153" target="71z1FLM2gSrZRs4qxzaF-154" edge="1">
          <mxGeometry relative="1" as="geometry" />
        </mxCell>
        <mxCell id="71z1FLM2gSrZRs4qxzaF-153" value="b" style="rounded=0;whiteSpace=wrap;html=1;fillColor=#a20025;fontColor=#ffffff;strokeColor=#6F0000;fontStyle=1" parent="1" vertex="1">
          <mxGeometry x="180" y="940" width="40" height="40" as="geometry" />
        </mxCell>
        <mxCell id="71z1FLM2gSrZRs4qxzaF-156" style="edgeStyle=orthogonalEdgeStyle;rounded=0;orthogonalLoop=1;jettySize=auto;html=1;exitX=0.5;exitY=1;exitDx=0;exitDy=0;entryX=0.5;entryY=0;entryDx=0;entryDy=0;" parent="1" source="71z1FLM2gSrZRs4qxzaF-154" target="71z1FLM2gSrZRs4qxzaF-155" edge="1">
          <mxGeometry relative="1" as="geometry" />
        </mxCell>
        <mxCell id="71z1FLM2gSrZRs4qxzaF-154" value="cc" style="rounded=0;whiteSpace=wrap;html=1;fillColor=#1ba1e2;fontColor=#ffffff;strokeColor=#006EAF;fontStyle=1" parent="1" vertex="1">
          <mxGeometry x="180" y="1020" width="40" height="40" as="geometry" />
        </mxCell>
        <mxCell id="71z1FLM2gSrZRs4qxzaF-155" value="d" style="rounded=0;whiteSpace=wrap;html=1;fillColor=#fa6800;fontColor=#000000;strokeColor=#C73500;fontStyle=1" parent="1" vertex="1">
          <mxGeometry x="180" y="1100" width="40" height="40" as="geometry" />
        </mxCell>
        <mxCell id="71z1FLM2gSrZRs4qxzaF-157" value="ff" style="rounded=0;whiteSpace=wrap;html=1;fillColor=#1ba1e2;fontColor=#ffffff;strokeColor=#006EAF;fontStyle=1" parent="1" vertex="1">
          <mxGeometry x="600" y="1580" width="40" height="40" as="geometry" />
        </mxCell>
      </root>
    </mxGraphModel>
  </diagram>
</mxfile>
